<?xml version="1.0" standalone="no"?>
<!DOCTYPE svg PUBLIC "-//W3C//DTD SVG 20010904//EN"
 "http://www.w3.org/TR/2001/REC-SVG-20010904/DTD/svg10.dtd">
<svg version="1.0" xmlns="http://www.w3.org/2000/svg"
 width="1472.000000pt" height="1472.000000pt" viewBox="0 0 1472.000000 1472.000000"
 preserveAspectRatio="xMidYMid meet">
<metadata>
Created by potrace 1.14, written by Peter Selinger 2001-2017
</metadata>
<g transform="translate(0.000000,1472.000000) scale(0.100000,-0.100000)"
fill="#000000" stroke="none">
<path d="M12316 11529 c2 -4 0 -10 -6 -14 -5 -3 -10 -1 -10 6 0 8 -4 8 -15 -1
-8 -7 -15 -9 -15 -4 0 5 -5 2 -10 -6 -8 -13 -10 -12 -10 4 0 19 0 19 -22 0
-12 -10 -18 -14 -15 -8 4 7 -2 14 -12 17 -13 3 -18 0 -15 -8 5 -13 -35 -13
-55 0 -6 3 -11 1 -11 -5 0 -6 -4 -9 -9 -6 -5 4 -12 0 -14 -6 -4 -10 -6 -10 -6
0 -1 9 -6 10 -20 2 -14 -7 -21 -6 -24 3 -4 9 -6 8 -6 -2 -1 -11 -4 -11 -16 -1
-12 10 -16 9 -21 -4 -3 -9 -10 -14 -14 -11 -5 3 -12 1 -15 -5 -5 -8 -11 -8
-20 0 -11 9 -12 6 -8 -12 3 -14 1 -18 -4 -12 -10 14 -55 13 -65 -1 -5 -6 -8
-4 -8 5 -1 12 -3 11 -11 -3 -8 -14 -14 -16 -25 -6 -11 9 -14 8 -14 -7 0 -16
-2 -16 -10 -4 -8 12 -10 12 -16 -3 -5 -15 -9 -15 -22 -5 -10 8 -13 8 -9 2 4
-7 0 -14 -8 -18 -8 -3 -17 -1 -20 5 -4 5 -11 7 -16 3 -5 -3 -6 -11 -2 -17 5
-8 2 -8 -9 1 -12 10 -18 9 -28 -3 -7 -9 -19 -14 -27 -11 -7 3 -13 1 -13 -3 0
-5 -7 -12 -16 -15 -10 -4 -13 -2 -8 7 5 9 4 9 -7 0 -7 -7 -21 -13 -30 -13 -10
0 -21 -5 -25 -12 -5 -7 -3 -8 6 -3 8 5 11 4 6 -3 -3 -6 -15 -9 -26 -7 -11 2
-20 -2 -20 -8 0 -7 -4 -6 -10 3 -8 13 -10 13 -10 -2 0 -11 -5 -15 -15 -12 -8
4 -15 1 -15 -6 0 -7 -7 -10 -16 -6 -8 3 -13 2 -10 -3 9 -14 -20 -21 -33 -8
-10 9 -12 9 -9 -3 2 -9 -4 -14 -14 -14 -9 1 -14 -4 -12 -11 3 -8 -3 -12 -18
-11 -26 2 -52 -19 -44 -33 3 -5 -3 -7 -14 -4 -13 3 -20 0 -20 -8 0 -11 -2 -11
-10 1 -8 13 -10 13 -10 -2 0 -11 -5 -15 -14 -12 -8 3 -19 -4 -26 -16 -7 -12
-18 -19 -26 -16 -8 3 -14 -1 -14 -10 0 -8 -4 -13 -9 -10 -5 4 -11 0 -13 -6 -3
-7 -13 -13 -24 -13 -12 0 -19 -6 -18 -17 1 -10 -1 -17 -5 -16 -25 3 -41 -5
-41 -19 0 -15 -2 -16 -10 -3 -7 11 -10 11 -10 2 0 -7 -4 -10 -10 -7 -5 3 -7 0
-4 -9 4 -11 0 -14 -14 -11 -13 2 -19 -2 -18 -13 1 -11 -6 -17 -21 -16 -12 0
-20 -3 -17 -8 3 -4 0 -8 -6 -8 -6 0 -8 -4 -5 -10 3 -5 1 -10 -5 -10 -6 0 -8
-5 -4 -12 5 -9 2 -9 -9 1 -9 7 -18 11 -18 7 -1 -3 -2 -9 -3 -13 -1 -5 -7 -17
-15 -28 -11 -18 -12 -18 -7 -1 6 16 4 17 -9 6 -8 -7 -12 -16 -9 -21 3 -5 -2
-9 -10 -9 -9 0 -15 -6 -13 -12 1 -7 -3 -12 -9 -11 -6 1 -17 -9 -24 -23 -9 -15
-19 -23 -28 -19 -13 5 -13 3 -1 -12 9 -11 10 -14 2 -9 -7 4 -13 3 -13 -2 0 -5
-11 -15 -25 -22 -13 -7 -23 -16 -22 -19 3 -10 -51 -59 -58 -53 -3 4 -4 0 -1
-8 4 -10 -5 -21 -25 -32 -16 -10 -28 -22 -25 -26 3 -5 -4 -16 -15 -25 -10 -9
-19 -24 -19 -32 0 -8 -5 -15 -11 -15 -6 0 -8 -7 -5 -16 3 -8 2 -12 -4 -9 -9 6
-14 -8 -11 -28 1 -5 -3 -6 -9 -2 -6 3 -17 0 -25 -9 -11 -11 -12 -17 -4 -22 9
-5 8 -10 -2 -18 -8 -6 -19 -20 -26 -31 -6 -11 -16 -19 -22 -18 -6 2 -8 -4 -4
-14 4 -10 2 -14 -4 -10 -7 5 -10 -2 -8 -18 1 -17 -3 -25 -13 -25 -8 0 -12 -3
-9 -7 4 -3 -1 -12 -11 -20 -11 -10 -12 -12 -2 -8 12 5 12 4 -1 -7 -21 -18 -30
-46 -16 -52 7 -2 4 -5 -5 -5 -10 -1 -20 -12 -24 -26 -3 -14 -11 -25 -16 -25
-6 0 -4 -8 3 -17 12 -14 12 -16 0 -8 -11 6 -13 4 -8 -9 4 -9 3 -15 -2 -12 -5
3 -15 -2 -22 -11 -8 -10 -9 -14 -2 -10 6 4 14 3 17 -2 3 -5 -3 -11 -14 -14
-13 -3 -18 -10 -14 -21 4 -9 1 -16 -6 -16 -7 0 -10 -7 -6 -16 4 -9 2 -13 -5
-8 -8 4 -9 -1 -4 -15 4 -15 3 -21 -7 -19 -7 2 -12 -3 -10 -11 2 -9 -4 -12 -17
-8 -14 3 -18 1 -15 -12 2 -9 -1 -5 -8 9 -9 17 -21 25 -35 24 -13 -1 -23 3 -23
7 0 5 -9 9 -21 9 -13 0 -18 4 -13 13 5 7 0 6 -11 -3 -11 -9 -16 -10 -11 -2 6
11 -5 17 -26 13 -5 0 -8 3 -8 9 0 5 -7 6 -17 3 -11 -4 -14 -3 -9 5 4 7 3 12
-3 12 -5 0 -12 -6 -14 -12 -4 -8 -8 -5 -12 8 -5 15 -12 20 -26 17 -10 -3 -19
-1 -19 4 0 5 -10 9 -22 8 -13 -1 -35 7 -50 17 -16 11 -41 20 -58 20 -16 1 -30
5 -30 10 0 5 -4 6 -10 3 -5 -3 -10 -1 -10 5 0 6 -4 8 -10 5 -5 -3 -10 2 -11
12 0 10 -3 13 -6 6 -3 -10 -12 -9 -35 3 -17 9 -27 11 -24 5 4 -6 2 -11 -3 -11
-6 0 -11 6 -11 14 0 7 -9 16 -19 19 -15 3 -18 1 -14 -12 4 -13 2 -13 -7 2 -6
9 -15 15 -21 12 -5 -4 -9 -1 -9 4 0 6 -3 10 -7 10 -29 -5 -53 2 -47 14 6 9 4
9 -8 -1 -14 -11 -18 -10 -28 8 -6 12 -16 18 -22 13 -18 -10 -57 -10 -51 1 4 5
-1 7 -10 3 -12 -4 -14 -2 -10 10 5 13 3 14 -15 4 -22 -11 -28 -5 -23 22 1 5
-3 6 -9 2 -6 -3 -7 -12 -3 -18 4 -7 0 -6 -10 2 -9 7 -17 10 -17 5 0 -5 -5 -1
-11 9 -10 18 -12 18 -30 1 -17 -15 -19 -16 -14 -2 5 13 2 15 -16 11 -17 -5
-20 -3 -14 7 5 9 4 11 -3 6 -6 -4 -22 -1 -34 5 -13 7 -45 14 -71 15 -26 1 -51
5 -55 9 -4 5 -1 5 7 0 10 -6 12 -4 7 4 -6 9 -11 9 -21 1 -10 -8 -15 -8 -21 1
-5 8 -3 9 6 4 9 -5 11 -4 6 3 -4 7 -17 10 -29 8 -12 -2 -28 1 -34 6 -9 7 -13
6 -13 -3 0 -12 -2 -12 -9 -1 -4 8 -12 14 -17 14 -5 0 -8 4 -6 10 1 5 -2 7 -8
3 -6 -3 -7 -11 -4 -17 4 -6 -3 -5 -16 2 -12 6 -24 9 -27 6 -4 -3 -13 3 -21 15
-9 14 -17 17 -26 10 -7 -6 -17 -6 -26 -1 -9 5 -19 5 -27 -2 -9 -7 -15 -6 -19
7 -5 13 -9 14 -15 3 -7 -10 -9 -10 -9 0 0 6 -5 12 -11 12 -5 0 -8 -4 -4 -9 3
-6 -4 -8 -17 -5 -13 3 -31 7 -41 8 -9 1 -23 8 -29 14 -14 14 -42 16 -33 2 3
-6 -1 -7 -9 -4 -9 3 -16 11 -16 17 0 6 -3 7 -6 4 -4 -3 -16 -1 -28 5 -20 10
-20 10 -6 -7 14 -17 14 -18 -8 -6 -13 7 -30 10 -38 7 -8 -3 -18 2 -21 11 -6
15 -7 14 -14 -3 -7 -18 -8 -18 -8 1 -1 17 -3 17 -11 5 -7 -12 -10 -12 -10 -1
0 8 -6 11 -16 7 -10 -4 -13 -2 -8 6 5 8 2 9 -9 5 -10 -4 -17 -1 -17 6 0 8 -4
6 -10 -3 -5 -8 -10 -11 -10 -6 0 5 -7 3 -15 -4 -13 -11 -14 -10 -10 2 6 15
-20 19 -42 5 -6 -4 -16 0 -23 8 -14 17 -35 20 -24 4 4 -8 1 -8 -13 -1 -11 6
-25 7 -33 2 -9 -5 -19 -5 -27 2 -7 6 -13 7 -13 2 0 -5 -5 -2 -10 6 -9 13 -10
13 -10 0 0 -13 -1 -13 -10 0 -9 13 -11 13 -20 0 -9 -13 -10 -13 -11 0 -1 8 -1
18 0 22 0 4 -6 5 -14 2 -8 -4 -12 -11 -8 -17 4 -6 1 -7 -8 -1 -8 5 -22 7 -33
5 -13 -2 -16 1 -10 11 6 11 5 11 -8 0 -13 -10 -17 -10 -21 0 -4 10 -6 10 -6 1
-1 -9 -8 -10 -24 -4 -13 5 -29 6 -36 1 -7 -4 -29 1 -49 11 -34 16 -38 17 -49
2 -7 -9 -13 -12 -13 -6 0 7 -9 11 -19 10 -11 0 -17 -5 -15 -9 9 -14 -4 -9 -20
8 -15 14 -16 14 -16 -3 0 -14 -2 -15 -9 -4 -7 11 -10 10 -18 -4 -9 -16 -11
-16 -16 -1 -5 13 -11 15 -25 7 -13 -7 -22 -7 -30 1 -7 7 -12 9 -12 5 0 -4 -9
-3 -19 3 -12 6 -22 6 -26 1 -6 -10 -37 -7 -57 5 -7 4 -8 3 -4 -4 4 -7 2 -12
-3 -12 -6 0 -11 4 -11 10 0 5 -7 6 -17 3 -9 -4 -14 -2 -10 3 9 16 -47 10 -61
-6 -9 -12 -12 -12 -10 -1 2 7 -3 16 -11 19 -9 3 -11 0 -6 -8 6 -9 3 -10 -12
-2 -12 7 -24 7 -37 0 -12 -7 -17 -7 -12 0 3 5 -1 13 -10 16 -11 4 -15 2 -11
-7 3 -7 -3 -13 -13 -13 -10 0 -17 3 -14 7 2 4 -3 9 -11 13 -8 3 -17 0 -21 -6
-5 -7 -2 -8 6 -3 9 5 11 4 6 -3 -5 -9 -13 -9 -27 -2 -15 9 -19 7 -20 -7 0 -16
-1 -16 -9 2 -6 14 -9 15 -10 5 0 -12 -4 -11 -15 4 -15 20 -15 20 -15 0 0 -16
-2 -17 -10 -4 -9 13 -10 13 -10 0 0 -12 -2 -13 -9 -1 -7 10 -9 11 -13 0 -5
-15 -49 -20 -65 -7 -9 7 -13 7 -13 0 0 -6 -9 -10 -20 -9 -11 1 -20 5 -20 9 0
4 -5 8 -11 8 -5 0 -7 -5 -3 -12 5 -8 2 -9 -9 -5 -9 3 -19 2 -22 -4 -4 -5 -12
-6 -18 -2 -18 11 -37 12 -37 2 0 -5 -5 -9 -11 -9 -5 0 -7 5 -3 11 4 8 -1 9
-16 4 -15 -5 -25 -2 -31 6 -7 11 -9 11 -9 -3 0 -17 -23 -19 -37 -3 -4 4 -2 5
6 0 10 -5 12 -4 7 4 -10 15 -26 5 -26 -17 0 -13 -2 -13 -15 4 -8 11 -14 14
-15 6 0 -9 -5 -10 -19 -2 -24 12 -42 13 -22 1 8 -5 -4 -9 -33 -9 -26 -1 -52
-4 -57 -8 -6 -4 -15 0 -20 7 -6 10 -9 10 -9 2 0 -7 -7 -10 -17 -6 -11 4 -14 3
-9 -5 5 -8 2 -10 -8 -6 -9 3 -13 11 -9 18 4 6 -1 5 -10 -3 -9 -7 -26 -11 -36
-8 -12 3 -22 -1 -25 -10 -3 -8 -10 -11 -16 -8 -5 3 -10 0 -11 -7 0 -7 -4 -4
-9 7 -5 11 -9 15 -9 9 -1 -14 -40 -19 -79 -10 -13 3 -20 1 -17 -5 9 -13 -9
-11 -23 3 -9 9 -13 8 -17 -4 -6 -14 -53 -16 -75 -3 -4 3 -10 -2 -14 -10 -3 -8
-12 -12 -21 -9 -8 3 -15 1 -15 -5 0 -6 -7 -8 -17 -4 -11 4 -14 3 -9 -5 5 -9 1
-9 -18 -2 -17 6 -27 6 -32 -2 -5 -7 -3 -8 6 -3 9 5 11 4 6 -4 -6 -8 -12 -9
-20 -2 -7 6 -23 8 -37 5 -13 -3 -39 -6 -56 -6 -23 0 -33 -5 -33 -16 0 -13 -3
-12 -16 4 -8 10 -13 14 -10 8 7 -14 -16 -24 -43 -19 -15 3 -18 0 -14 -12 5
-13 1 -12 -23 3 -15 11 -25 14 -21 8 4 -7 -1 -14 -13 -17 -13 -3 -18 -1 -14 6
5 9 4 9 -6 0 -7 -6 -19 -9 -28 -6 -11 5 -13 2 -7 -6 6 -10 3 -11 -13 -2 -15 8
-23 7 -32 -4 -7 -8 -25 -15 -41 -15 -15 0 -31 -5 -34 -10 -4 -6 -13 -7 -23 -1
-21 10 -45 3 -36 -11 4 -6 -1 -6 -14 1 -15 8 -23 7 -32 -4 -7 -8 -16 -12 -21
-9 -5 3 -9 0 -9 -7 0 -8 -4 -8 -15 1 -11 9 -15 9 -15 1 0 -7 -8 -11 -17 -9
-11 2 -17 -2 -15 -10 2 -9 -3 -10 -16 -3 -18 10 -56 -4 -48 -17 2 -4 -7 -8
-21 -9 -19 -1 -22 1 -12 8 9 6 10 9 2 9 -6 0 -14 -4 -18 -10 -3 -5 -12 -7 -20
-3 -8 3 -15 1 -15 -5 0 -6 -11 -9 -25 -7 -14 1 -25 -2 -25 -7 0 -5 -5 -6 -12
-2 -8 5 -9 2 -4 -11 5 -14 4 -16 -7 -7 -10 9 -17 8 -27 -1 -7 -6 -10 -7 -7 -1
3 6 0 11 -7 11 -8 0 -12 -7 -9 -14 4 -11 -1 -12 -22 -7 -22 5 -26 4 -20 -6 5
-8 4 -11 -3 -7 -15 10 -43 -3 -35 -17 4 -6 -1 -5 -10 3 -12 9 -17 10 -17 2 0
-7 -5 -9 -10 -6 -6 4 -16 3 -23 -2 -7 -5 -24 -9 -39 -8 -20 1 -24 -2 -17 -11
7 -8 5 -11 -8 -10 -10 0 -21 6 -25 11 -4 6 -8 1 -8 -9 0 -11 -3 -16 -6 -13 -4
3 -15 2 -25 -4 -14 -7 -19 -6 -19 3 0 9 -3 9 -9 -2 -6 -8 -8 -17 -6 -20 2 -4
-2 -7 -10 -7 -8 0 -12 5 -9 11 3 6 -1 3 -10 -8 -8 -10 -19 -15 -25 -11 -6 3
-11 0 -11 -7 0 -10 -2 -10 -9 1 -6 10 -10 10 -16 1 -4 -6 -13 -9 -21 -6 -8 3
-14 -1 -14 -10 0 -8 -4 -12 -10 -9 -5 3 -10 2 -10 -3 0 -5 -10 -8 -22 -7 -13
1 -29 -5 -36 -14 -8 -9 -11 -10 -7 -3 3 6 2 12 -3 12 -6 0 -13 -7 -16 -15 -3
-9 -14 -15 -23 -13 -10 2 -17 -2 -16 -9 2 -9 -4 -10 -23 -3 -15 6 -23 6 -19 1
3 -5 -5 -11 -17 -13 -13 -2 -22 -9 -20 -16 1 -8 -2 -11 -9 -6 -6 3 -15 0 -20
-7 -7 -12 -9 -12 -9 0 0 11 -3 11 -15 1 -8 -7 -22 -9 -31 -6 -14 5 -15 4 -4
-9 7 -9 10 -18 6 -22 -3 -3 -6 -2 -6 4 0 5 -7 10 -15 10 -8 0 -15 -7 -15 -16
0 -12 -2 -13 -8 -3 -5 7 -16 10 -25 6 -9 -3 -14 -11 -10 -17 3 -6 -5 -2 -19 9
-14 10 -24 27 -23 36 2 9 -6 29 -17 43 -11 14 -18 29 -15 32 3 3 0 12 -8 19
-8 8 -12 21 -9 29 4 8 1 15 -6 15 -10 0 -10 3 0 15 11 13 10 14 -1 10 -8 -3
-20 4 -27 16 -11 17 -11 20 0 13 7 -4 5 2 -5 13 -14 16 -15 22 -5 26 9 4 8 6
-3 6 -9 1 -22 15 -29 31 -7 17 -16 30 -21 30 -5 0 -6 6 -3 14 3 8 -3 20 -15
27 -16 11 -18 16 -8 28 10 12 9 13 -1 7 -9 -5 -15 -1 -19 13 -3 11 -10 18 -16
14 -6 -4 -8 1 -5 13 5 20 -12 44 -32 44 -6 0 -9 4 -6 9 3 5 -1 12 -10 15 -8 3
-12 10 -9 16 3 5 1 10 -5 10 -6 0 -8 5 -4 12 5 7 1 9 -13 6 -17 -4 -19 -1 -15
20 3 17 1 23 -7 18 -6 -4 -11 -2 -11 4 0 6 -6 8 -12 4 -10 -5 -10 -4 -1 6 9
10 9 16 -2 26 -7 8 -18 14 -24 14 -5 0 -13 4 -16 10 -3 6 1 7 12 4 10 -3 5 2
-10 11 -16 9 -25 21 -21 27 4 7 3 8 -4 4 -7 -4 -20 9 -32 31 -12 21 -18 29
-15 18 6 -20 6 -20 -13 0 -13 13 -16 24 -10 32 6 8 4 11 -9 9 -19 -3 -44 15
-36 27 2 4 -3 7 -12 7 -9 0 -13 5 -10 10 3 6 -1 10 -10 10 -9 0 -13 5 -10 10
3 6 1 10 -5 10 -5 0 -24 14 -42 30 -17 17 -35 30 -39 30 -5 0 -5 8 -2 17 5 12
2 15 -10 10 -8 -3 -21 1 -27 8 -7 8 -17 12 -24 8 -6 -4 -5 1 3 10 12 15 12 17
-3 11 -9 -3 -16 -1 -16 6 0 6 -5 8 -10 5 -6 -3 -10 1 -10 10 0 9 -4 13 -10 10
-5 -3 -10 -1 -10 6 0 7 -3 10 -6 6 -8 -8 -33 16 -27 25 2 4 -3 5 -11 2 -9 -3
-16 -1 -16 6 0 6 -5 8 -10 5 -5 -3 -10 -1 -10 4 0 6 -7 11 -16 11 -8 0 -13 4
-10 8 2 4 -4 13 -14 20 -12 7 -21 8 -25 2 -10 -16 -25 -1 -18 18 6 15 5 15
-10 4 -14 -12 -16 -11 -12 6 3 16 -1 18 -22 14 -16 -3 -24 -1 -20 5 10 15 -14
29 -45 28 -23 -1 -25 1 -15 14 10 12 9 13 -2 7 -8 -5 -17 -3 -22 5 -7 12 -9
11 -9 -1 -1 -9 -6 -5 -15 10 -8 14 -14 19 -15 11 0 -11 -3 -11 -15 -1 -8 6
-19 9 -25 5 -9 -6 -15 8 -11 28 1 5 -8 6 -19 2 -13 -4 -20 -2 -20 7 0 10 -3 9
-10 -2 -6 -10 -10 -11 -10 -2 0 6 -7 12 -16 12 -8 0 -12 5 -9 10 3 6 -1 10
-10 10 -10 0 -14 -5 -10 -12 4 -7 0 -5 -8 4 -8 10 -17 15 -20 11 -4 -3 -7 -1
-7 6 0 7 -6 11 -14 8 -7 -3 -19 0 -26 6 -8 7 -10 7 -7 1 3 -6 0 -11 -7 -11 -9
0 -12 7 -8 16 5 14 4 14 -13 1 -10 -8 -16 -10 -13 -5 3 6 0 16 -8 23 -11 10
-14 10 -14 0 0 -9 -3 -9 -10 2 -9 13 -10 13 -10 0 0 -12 -2 -12 -8 -2 -5 8
-16 10 -28 5 -17 -6 -18 -5 -4 12 14 17 14 18 -7 6 -16 -8 -23 -8 -23 -1 0 6
-4 8 -10 5 -5 -3 -10 -2 -10 4 0 6 -7 8 -15 5 -8 -4 -15 -2 -15 2 0 5 -11 10
-25 10 -16 1 -22 -2 -18 -10 4 -6 -1 -5 -10 3 -9 7 -14 18 -10 24 3 6 1 7 -6
3 -6 -4 -9 -12 -6 -17 4 -5 1 -9 -4 -9 -6 0 -11 6 -11 13 0 8 -4 7 -10 -3 -8
-13 -10 -13 -10 2 0 11 -6 15 -20 11 -15 -4 -20 0 -20 13 0 17 -1 17 -13 -1
-11 -14 -16 -15 -22 -5 -6 9 -4 11 5 5 9 -5 11 -4 6 4 -4 6 -12 8 -18 5 -17
-11 -69 -10 -75 0 -4 5 0 6 7 1 9 -6 11 -4 5 5 -6 10 -11 9 -22 -5 -7 -11 -13
-14 -13 -7 0 11 -30 9 -53 -4 -8 -5 -7 -2 2 9 8 10 11 20 7 24 -3 3 -6 1 -6
-6 0 -7 -4 -9 -10 -6 -5 3 -10 0 -10 -7 0 -9 -3 -9 -10 2 -9 13 -10 13 -11 0
0 -10 -3 -8 -9 5 l-9 20 0 -20 c-1 -15 -3 -17 -10 -6 -5 7 -14 10 -20 7 -6 -4
-11 -2 -11 4 0 8 -6 7 -21 -1 -12 -6 -19 -7 -15 -1 3 5 -1 13 -10 16 -23 9
-26 8 -18 -6 6 -10 4 -10 -7 0 -15 14 -33 16 -25 3 7 -11 -21 -8 -31 4 -4 4
-2 5 6 0 10 -5 12 -4 7 3 -5 8 -13 9 -25 2 -10 -5 -21 -7 -24 -3 -4 3 -14 0
-24 -8 -9 -8 -14 -9 -10 -2 4 6 3 14 -2 17 -5 3 -12 -1 -15 -9 -4 -13 -10 -14
-26 -5 -11 6 -20 7 -19 3 3 -20 -2 -24 -18 -12 -15 12 -16 12 -10 -4 5 -14 3
-16 -11 -9 -9 4 -33 7 -52 6 -19 -1 -50 -3 -68 -3 -22 -1 -31 -5 -26 -13 5 -7
3 -8 -7 -2 -19 12 -39 14 -39 4 0 -4 -19 -6 -42 -5 -30 2 -47 -3 -56 -14 -10
-12 -11 -12 -6 -1 7 13 5 13 -9 1 -9 -7 -24 -11 -32 -7 -10 3 -15 -1 -16 -12
0 -10 -3 -12 -6 -4 -2 6 -11 12 -19 12 -9 0 -12 -4 -9 -10 4 -7 -3 -7 -20 0
-14 5 -24 6 -21 1 9 -14 -20 -21 -33 -8 -8 8 -11 7 -11 -6 0 -13 -6 -16 -24
-13 -17 3 -23 0 -20 -8 3 -9 -6 -11 -32 -8 -23 3 -34 1 -30 -6 3 -5 -2 -9 -12
-8 -9 0 -16 -4 -15 -11 2 -7 -4 -10 -12 -7 -9 4 -23 0 -32 -7 -11 -10 -14 -10
-9 -2 5 9 2 11 -8 7 -9 -3 -16 -10 -16 -15 0 -4 -7 -6 -15 -3 -8 4 -15 1 -15
-6 0 -6 -4 -8 -10 -5 -5 3 -10 1 -10 -6 0 -7 -3 -10 -6 -6 -4 3 -21 -1 -38
-10 -17 -10 -34 -16 -38 -15 -5 1 -8 -2 -8 -8 0 -5 -9 -10 -20 -10 -11 0 -20
-3 -20 -8 0 -4 -24 -18 -52 -31 -29 -13 -67 -35 -84 -48 -17 -12 -36 -23 -42
-23 -6 0 -12 -3 -14 -7 -1 -5 -29 -26 -62 -48 -147 -100 -337 -277 -456 -424
-19 -24 -40 -48 -45 -55 -14 -15 -126 -176 -144 -207 -79 -135 -111 -192 -111
-199 0 -5 -9 -24 -19 -42 -24 -42 -108 -253 -125 -315 -7 -26 -21 -75 -30
-108 -10 -33 -19 -69 -20 -80 -2 -11 -6 -33 -9 -50 -7 -31 -12 -60 -22 -130
-3 -23 -8 -52 -10 -65 -3 -14 -8 -100 -12 -192 -5 -156 -4 -168 12 -168 14 0
15 -3 5 -15 -7 -8 -8 -15 -3 -15 13 0 11 -60 -1 -79 -6 -10 -6 -12 2 -7 11 6
16 -6 13 -26 0 -5 4 -8 10 -8 8 0 7 -6 -2 -17 -10 -11 -11 -17 -3 -20 7 -2 10
-12 7 -22 -2 -10 3 -25 12 -35 12 -12 13 -16 3 -16 -10 0 -10 -2 1 -9 8 -5 11
-16 8 -25 -4 -9 1 -19 10 -24 11 -7 12 -11 4 -17 -9 -5 -6 -12 9 -25 13 -12
18 -24 13 -35 -4 -13 -3 -16 5 -11 8 5 10 2 6 -8 -3 -9 -2 -16 2 -16 5 0 9
-10 10 -22 1 -27 7 -51 14 -58 14 -14 44 -66 42 -74 -2 -4 3 -15 10 -24 11
-13 11 -14 -2 -7 -13 8 -13 7 0 -9 8 -10 15 -24 16 -30 0 -6 2 -17 2 -23 1 -7
9 -13 18 -13 8 0 12 -4 9 -10 -3 -5 -1 -10 5 -10 6 0 8 -5 5 -10 -11 -18 5
-49 22 -43 10 4 14 2 10 -4 -3 -5 2 -19 13 -30 14 -16 16 -23 7 -33 -8 -9 -8
-11 -1 -7 7 4 17 -6 24 -24 8 -18 18 -28 26 -25 8 3 11 0 8 -8 -3 -7 2 -19 11
-26 8 -7 15 -18 15 -26 0 -7 8 -18 17 -23 16 -9 16 -12 3 -21 -13 -8 -13 -10
3 -11 9 -1 22 -2 29 -3 6 0 12 -10 14 -21 2 -11 8 -21 14 -23 5 -2 8 -8 4 -13
-3 -5 2 -9 10 -9 9 0 16 -4 16 -10 0 -19 3 -25 18 -36 9 -6 13 -18 9 -27 -3
-9 -3 -16 1 -15 12 2 51 -16 51 -24 1 -5 1 -12 1 -18 0 -5 8 -6 17 -3 12 5 15
2 11 -9 -4 -9 4 -21 23 -32 16 -9 29 -23 29 -31 0 -8 8 -12 19 -10 15 3 19 -1
16 -16 -2 -11 2 -19 9 -19 8 0 20 -8 27 -17 12 -14 12 -16 0 -8 -10 6 -12 4
-6 -4 4 -8 20 -11 36 -9 15 3 26 1 23 -4 -3 -4 0 -8 5 -8 6 0 11 -7 11 -15 0
-8 7 -15 16 -15 10 0 14 -6 10 -15 -5 -13 5 -20 27 -16 4 0 7 -4 7 -10 0 -5 4
-8 9 -5 5 3 15 -2 22 -11 12 -14 12 -16 -1 -8 -12 6 -12 5 -3 -5 6 -7 22 -13
35 -14 13 -1 23 -7 23 -16 0 -9 8 -14 18 -12 9 2 17 -2 17 -8 0 -6 3 -9 8 -7
9 5 42 -29 35 -37 -3 -3 4 -4 16 -1 22 4 55 -21 46 -35 -3 -4 3 -6 13 -3 10 2
25 -3 33 -13 12 -15 12 -16 0 -9 -10 5 -12 4 -7 -3 4 -7 20 -12 35 -12 15 0
33 -6 40 -12 11 -11 12 -10 6 1 -5 9 -4 12 3 7 7 -4 12 -17 12 -29 0 -18 2
-19 10 -7 6 10 10 11 10 2 0 -14 21 -12 32 3 5 6 8 5 9 -2 3 -28 4 -32 10 -38
7 -6 80 -17 114 -16 16 0 17 -2 5 -9 -13 -9 -13 -11 0 -20 13 -8 13 -10 1 -10
-11 0 -10 -4 5 -16 10 -8 13 -12 5 -8 -11 5 -13 3 -8 -9 4 -10 2 -16 -5 -14
-7 1 -13 -4 -14 -10 -1 -7 -2 -18 -3 -24 0 -5 -6 -7 -12 -3 -8 4 -9 -1 -4 -16
6 -19 4 -22 -10 -16 -16 6 -16 4 -4 -11 8 -9 9 -14 2 -10 -7 4 -14 -1 -18 -13
-3 -11 -12 -20 -18 -20 -7 0 -6 -4 3 -10 9 -6 11 -10 3 -10 -7 0 -10 -7 -6
-17 4 -11 3 -14 -5 -9 -7 4 -13 2 -13 -3 -1 -6 -3 -15 -4 -21 -1 -5 -3 -15 -4
-21 0 -5 -5 -8 -10 -5 -4 3 -7 -5 -6 -19 2 -15 -1 -22 -9 -19 -7 3 -13 -2 -13
-11 0 -8 5 -15 11 -15 6 0 3 -5 -6 -11 -10 -5 -18 -17 -18 -25 0 -8 -4 -13 -8
-10 -5 3 -9 0 -10 -7 -2 -30 -12 -61 -23 -68 -8 -5 -8 -8 0 -14 16 -9 -7 -37
-23 -28 -7 4 -7 1 1 -7 10 -10 8 -19 -7 -40 -11 -15 -17 -30 -13 -34 3 -3 1
-6 -6 -6 -7 0 -9 -4 -6 -10 3 -5 1 -10 -6 -10 -7 0 -9 -3 -6 -7 4 -3 1 -13 -6
-21 -10 -13 -9 -15 3 -8 10 5 10 3 -2 -6 -12 -11 -14 -18 -6 -32 8 -14 7 -17
-1 -12 -7 5 -11 -1 -11 -14 0 -17 -4 -21 -17 -15 -14 5 -15 3 -6 -6 12 -12 7
-42 -6 -35 -4 3 -7 -6 -7 -20 0 -13 4 -24 9 -24 4 0 5 -5 2 -10 -4 -6 -11 -8
-16 -4 -5 3 -9 2 -8 -3 5 -27 -2 -53 -13 -47 -8 5 -9 2 -5 -9 4 -10 2 -17 -5
-17 -6 0 -5 -6 3 -17 12 -14 12 -16 -2 -11 -9 4 -16 1 -16 -8 0 -7 5 -11 11
-8 6 3 3 -1 -6 -9 -13 -10 -14 -17 -6 -25 9 -9 5 -14 -13 -21 -13 -5 -18 -10
-10 -10 11 -1 11 -4 1 -16 -8 -10 -9 -15 -2 -15 6 0 9 -7 6 -15 -4 -8 -9 -13
-13 -11 -4 3 -7 -3 -8 -12 -5 -61 -11 -85 -24 -93 -12 -7 -12 -9 0 -9 11 0 12
-3 4 -11 -6 -6 -9 -18 -6 -27 4 -10 2 -13 -5 -8 -7 4 -12 1 -12 -8 0 -8 6 -17
13 -19 9 -4 9 -6 -1 -6 -7 -1 -10 -5 -7 -11 3 -5 -2 -10 -12 -11 -10 0 -13 -3
-5 -6 15 -6 16 -33 1 -33 -5 0 -8 -4 -5 -9 4 -5 0 -12 -6 -14 -10 -4 -9 -6 1
-6 11 -1 11 -4 1 -16 -10 -12 -10 -18 0 -30 11 -14 7 -19 -13 -16 -11 2 -9
-17 3 -24 8 -5 7 -11 -1 -21 -6 -7 -9 -21 -5 -29 4 -11 2 -14 -6 -9 -7 5 -9 0
-6 -14 4 -12 2 -22 -4 -22 -5 0 -7 -4 -3 -9 3 -5 1 -13 -5 -16 -8 -5 -7 -11 1
-21 8 -10 8 -14 1 -14 -6 0 -9 -7 -6 -15 4 -8 1 -15 -5 -15 -6 0 -8 -7 -5 -15
4 -8 1 -22 -5 -29 -8 -10 -9 -16 -1 -21 5 -3 10 -11 10 -16 0 -6 -4 -8 -9 -5
-4 3 -6 -11 -4 -30 2 -21 0 -33 -6 -30 -5 3 -7 -3 -4 -13 3 -10 0 -28 -6 -40
-8 -13 -8 -21 -2 -21 7 0 7 -9 1 -25 -6 -17 -6 -25 1 -25 6 0 7 -6 2 -12 -13
-22 -14 -50 -1 -42 7 4 8 3 4 -4 -4 -7 -15 -12 -24 -12 -11 0 -13 -3 -6 -8 6
-4 10 -26 8 -50 -1 -26 2 -40 8 -36 6 4 3 -5 -7 -19 -10 -17 -13 -27 -6 -32 6
-3 11 -11 11 -16 0 -6 -4 -8 -8 -5 -5 3 -9 -1 -9 -9 0 -8 4 -15 9 -15 5 0 6
-5 2 -11 -12 -20 -12 -99 0 -92 7 4 7 2 -1 -7 -6 -7 -9 -19 -6 -28 5 -11 2
-13 -8 -7 -11 6 -12 5 -1 -6 15 -16 16 -33 1 -23 -7 4 -7 -1 1 -16 9 -17 9
-25 -1 -34 -9 -8 -10 -8 -4 3 6 10 4 12 -5 6 -10 -6 -8 -13 11 -28 15 -13 17
-18 7 -14 -15 5 -16 2 -8 -18 8 -21 6 -25 -8 -26 -11 -1 -8 -4 8 -9 20 -6 21
-8 5 -9 -15 -1 -16 -4 -7 -13 16 -16 15 -31 0 -22 -9 5 -9 2 1 -9 7 -9 10 -17
7 -17 -4 0 -2 -9 4 -20 7 -12 7 -20 1 -20 -5 0 -9 -9 -8 -20 1 -11 6 -20 11
-20 6 0 5 -5 -1 -11 -8 -8 -8 -20 -3 -35 7 -17 6 -24 -3 -24 -7 0 -8 -3 -2 -8
6 -4 10 -16 9 -27 0 -11 5 -26 10 -34 8 -11 8 -13 -2 -7 -9 6 -12 1 -10 -16 2
-12 7 -29 12 -37 6 -10 5 -12 -2 -7 -8 5 -12 -1 -12 -16 0 -18 2 -20 10 -8 6
9 10 10 10 3 0 -6 -5 -15 -10 -18 -6 -4 -4 -12 5 -22 12 -11 13 -19 5 -28 -8
-10 -8 -15 1 -20 8 -6 7 -10 -2 -16 -11 -7 -11 -9 -1 -9 10 0 10 -5 2 -20 -9
-16 -8 -22 5 -26 14 -6 14 -8 -1 -19 -14 -9 -14 -14 -4 -20 9 -6 11 -4 5 5 -6
9 -4 11 4 5 7 -4 11 -18 8 -31 -2 -13 -1 -24 3 -24 11 0 7 -34 -5 -42 -6 -5
-6 -8 1 -8 7 0 15 -7 18 -16 3 -8 2 -12 -4 -9 -6 3 -10 2 -10 -4 0 -5 8 -15
18 -20 9 -6 12 -11 6 -11 -12 0 -12 -29 0 -48 4 -7 2 -12 -6 -12 -7 0 -2 -7
10 -16 22 -15 23 -17 5 -36 -13 -14 -14 -19 -3 -16 16 3 20 -30 6 -50 -6 -8
-6 -12 0 -11 21 4 28 -2 14 -11 -13 -8 -12 -10 3 -10 14 0 16 -4 8 -18 -7 -13
-4 -30 8 -58 10 -21 16 -45 13 -53 -2 -7 2 -17 9 -22 11 -7 9 -9 -6 -9 -18 0
-18 -1 3 -16 18 -12 20 -19 12 -29 -9 -11 -2 -24 35 -60 26 -25 58 -48 71 -51
13 -3 24 -10 24 -14 0 -5 12 -15 27 -23 16 -8 68 -37 116 -65 49 -29 91 -52
93 -52 3 0 34 -14 70 -30 57 -27 108 -50 124 -55 3 -1 12 -5 20 -8 42 -18 236
-78 268 -83 20 -3 40 -8 44 -10 7 -5 155 -33 207 -40 20 -3 63 -8 96 -12 78
-9 10333 -9 10405 0 30 4 78 9 105 12 28 3 61 8 75 12 39 9 62 14 97 18 18 3
37 7 43 11 6 4 21 8 33 10 47 7 193 54 327 106 14 5 29 9 34 8 5 0 12 3 15 8
3 4 50 29 104 56 108 52 223 121 335 200 53 38 71 57 68 70 -2 10 2 21 9 23 8
3 11 12 8 20 -3 8 1 14 8 14 12 0 12 2 0 9 -9 6 -10 11 -2 15 15 10 14 29 -1
21 -7 -4 -4 1 6 9 11 9 17 16 13 16 -4 0 -3 9 3 20 8 15 8 20 -2 20 -8 1 -7 5
4 14 10 7 15 16 11 19 -3 4 -1 7 5 7 7 0 12 5 12 11 0 5 -4 8 -8 5 -9 -5 -8
41 1 50 3 3 3 13 0 22 -5 11 -3 13 8 7 11 -7 12 -6 2 6 -9 11 -8 18 3 33 11
15 11 22 2 27 -9 6 -9 11 1 23 8 9 10 16 5 16 -5 0 -1 5 9 11 12 7 15 15 9 27
-7 16 -8 33 -2 57 6 25 4 41 -5 47 -6 4 -2 8 8 8 14 0 16 4 8 18 -7 14 -6 25
5 40 10 15 11 22 3 22 -9 0 -9 3 0 14 8 10 9 16 1 21 -7 4 -7 12 0 26 8 14 7
19 -2 19 -8 0 -6 5 5 11 12 7 15 17 11 36 -5 18 -3 24 4 19 8 -5 10 -2 6 8 -3
9 -11 16 -18 16 -6 0 -5 4 3 9 16 10 21 91 6 91 -5 0 -3 5 5 10 13 9 13 10 0
10 -9 0 -11 3 -5 8 13 9 14 52 1 52 -5 0 -1 7 10 16 10 8 14 13 8 10 -7 -3
-14 5 -16 19 -4 18 -2 22 6 16 7 -6 11 -2 11 14 0 13 -3 21 -7 18 -11 -6 -10
5 3 29 6 12 7 18 1 14 -6 -3 -9 5 -8 19 0 15 6 23 13 21 7 -3 10 1 7 9 -3 8
-13 11 -22 8 -14 -4 -14 -3 -3 5 8 6 12 19 8 31 -3 12 -1 24 4 27 5 3 9 11 9
17 0 8 -3 8 -9 -1 -6 -10 -10 -9 -14 7 -3 13 -1 19 5 15 5 -3 8 2 7 12 -2 11
0 25 5 33 6 10 5 12 -3 7 -9 -6 -11 1 -5 29 5 30 4 36 -6 30 -9 -6 -11 -4 -5
4 11 20 12 71 1 71 -6 0 -5 4 3 9 8 5 9 11 3 15 -7 4 -7 17 -2 36 8 29 6 34
-14 31 -5 -1 -3 5 4 14 7 8 10 18 7 22 -4 3 -1 13 6 21 10 13 9 14 -2 7 -11
-6 -13 -4 -8 9 4 10 1 19 -8 23 -12 4 -13 9 -5 18 7 9 8 15 1 19 -7 5 -7 15
-1 31 7 18 6 25 -3 25 -9 0 -9 2 1 9 10 6 10 10 -2 20 -11 9 -13 18 -6 31 5 9
7 20 3 23 -5 6 -9 24 -17 82 -1 11 3 26 8 34 9 12 8 13 -3 6 -11 -6 -13 -3 -9
13 4 14 2 20 -4 16 -7 -5 -9 2 -4 20 4 17 3 25 -3 22 -5 -3 -7 3 -4 13 3 11
-2 34 -10 51 -9 17 -11 28 -6 25 13 -9 11 9 -3 23 -9 9 -9 12 0 12 9 0 10 5 3
19 -6 10 -7 22 -3 25 4 4 -2 12 -12 18 -15 8 -16 12 -5 19 11 7 11 9 1 9 -9 0
-10 5 -3 19 12 22 5 32 -16 24 -13 -5 -13 -2 -4 15 13 25 14 35 2 28 -5 -3
-11 3 -14 14 -3 11 -1 18 4 14 14 -8 10 14 -5 28 -9 9 -11 20 -5 36 6 15 5 21
-1 17 -9 -6 -14 8 -11 28 0 4 -4 7 -10 7 -8 0 -8 5 1 15 10 12 10 15 0 15 -8
0 -10 3 -7 7 4 3 0 17 -9 31 -9 13 -12 22 -7 19 5 -4 10 0 10 8 0 8 -4 12 -9
9 -9 -6 -10 -3 -14 45 -1 18 -8 38 -15 45 -9 8 -10 8 -4 -3 5 -9 4 -12 -3 -7
-8 4 -8 15 -2 31 9 23 6 29 -11 27 -4 -1 -6 12 -5 29 1 17 -2 33 -7 36 -6 4
-7 1 -2 -7 5 -9 4 -11 -4 -6 -6 4 -8 12 -5 18 4 6 0 14 -7 19 -12 7 -12 9 0 9
11 0 10 4 -3 19 -10 11 -15 24 -12 30 4 5 1 13 -5 16 -5 4 -8 14 -5 22 3 8 2
12 -3 9 -5 -3 -11 3 -14 14 -3 11 -1 18 4 14 5 -3 9 0 9 5 0 6 -6 11 -14 11
-9 0 -13 7 -11 20 2 11 -1 20 -6 20 -6 0 -7 5 -4 10 3 6 1 10 -5 10 -6 0 -9 4
-6 9 3 5 -1 14 -9 21 -7 6 -11 18 -8 26 3 8 0 14 -6 14 -6 0 -8 7 -5 15 4 8 1
15 -6 15 -7 0 -10 7 -6 16 3 8 2 13 -3 10 -13 -8 -21 18 -15 48 2 15 0 25 -5
24 -5 -2 -10 2 -12 7 -1 6 -9 16 -16 24 -8 7 -11 22 -8 32 4 13 2 19 -6 17 -7
-2 -14 2 -14 7 -4 24 -18 44 -27 39 -6 -4 -6 2 1 14 8 16 7 21 -5 26 -8 3 -12
10 -9 16 3 5 0 10 -7 10 -11 0 -10 2 0 9 11 7 10 9 -3 15 -11 4 -14 13 -10 28
3 13 3 19 -2 13 -4 -5 -14 -11 -21 -13 -10 -2 -10 2 -2 18 7 13 7 20 0 20 -5
0 -9 6 -7 13 1 6 -4 11 -12 9 -8 -2 -11 3 -8 12 4 9 0 19 -8 24 -8 4 -16 22
-18 40 -2 18 -7 35 -12 40 -5 4 -5 2 -2 -4 3 -6 0 -11 -8 -11 -13 0 -13 3 0
17 8 9 12 20 8 25 -5 4 -2 5 5 1 8 -5 12 0 12 16 0 17 3 19 9 9 6 -10 10 -10
16 -1 6 9 10 9 16 -1 6 -10 9 -10 9 -2 0 6 9 10 20 8 18 -3 25 5 21 27 0 4 12
6 28 4 17 -2 38 4 52 16 13 11 17 17 9 13 -8 -4 -6 1 4 9 14 11 22 13 27 5 5
-8 8 -8 13 0 4 6 11 9 16 6 5 -3 11 -1 15 5 3 5 1 10 -5 10 -7 0 -7 4 2 13 6
8 22 12 34 9 15 -3 23 2 27 18 4 17 11 21 28 17 15 -4 23 -1 26 14 3 10 9 17
13 14 4 -3 10 2 14 10 3 8 12 12 21 9 9 -4 15 0 15 10 0 9 13 19 33 24 23 6
32 14 31 28 -1 17 4 19 27 16 24 -4 29 -1 29 17 0 15 5 21 17 19 10 -2 18 3
19 10 1 6 2 17 3 23 0 5 5 8 10 4 5 -3 13 -1 16 5 5 7 11 8 19 1 8 -7 12 -4
13 11 2 26 24 41 36 25 5 -7 7 -1 4 16 -2 15 -2 25 1 22 3 -2 12 1 20 8 13 10
14 9 7 -2 -5 -10 -4 -12 4 -7 7 4 11 17 9 29 -2 17 2 21 22 22 18 0 24 5 22
17 -1 9 3 20 9 24 8 5 10 2 5 -7 -4 -8 3 -2 16 14 13 15 33 27 43 27 15 0 17
3 7 9 -11 7 -11 11 2 24 9 8 16 23 16 31 0 14 17 21 41 18 4 -1 5 6 2 16 -2 9
5 27 16 38 11 12 17 24 14 28 -3 3 4 3 16 1 12 -2 19 0 16 5 -3 5 1 20 10 33
8 13 12 27 9 30 -4 4 0 9 9 13 9 3 13 12 10 21 -4 9 -2 14 3 10 13 -8 32 4 36
23 2 8 10 21 18 28 10 9 11 11 1 6 -9 -4 -12 -2 -9 7 3 8 12 13 19 11 8 -2 11
0 7 3 -13 13 12 47 30 40 9 -3 13 -3 10 1 -4 4 -3 15 2 25 7 12 6 19 -3 22 -9
4 -9 6 1 6 6 1 12 8 12 16 0 8 6 15 14 15 16 0 29 37 15 42 -6 2 -1 13 11 26
11 12 16 22 10 22 -7 0 -10 6 -7 13 2 6 9 11 15 10 5 -1 13 4 16 13 3 8 1 12
-4 9 -6 -3 -7 1 -4 9 3 9 11 13 18 9 6 -3 8 -3 4 2 -4 4 -2 15 5 23 10 13 9
15 -3 8 -12 -6 -12 -5 1 6 18 15 32 48 20 48 -4 0 -8 7 -8 15 0 8 4 12 8 9 8
-4 21 25 16 37 -1 4 5 15 13 25 9 11 15 34 15 53 0 23 8 43 23 58 14 14 20 28
16 35 -11 18 -12 48 -2 48 5 0 4 9 -1 19 -8 14 -7 22 3 30 15 12 16 28 3 49
-5 7 -4 12 2 12 6 0 10 3 10 8 -4 23 2 42 12 36 11 -6 6 242 -7 326 -3 19 -7
49 -9 65 -2 17 -4 30 -5 30 -1 0 -4 18 -6 40 -11 94 -90 376 -134 480 -48 112
-174 358 -195 381 -5 6 -19 27 -30 47 -11 20 -23 37 -27 37 -5 0 -8 4 -8 10 0
5 -6 18 -14 27 -8 10 -45 56 -82 103 -114 144 -252 281 -384 382 -30 23 -63
50 -72 59 -10 10 -26 20 -38 24 -11 3 -20 11 -20 16 0 5 -7 9 -15 9 -8 0 -15
3 -15 8 0 6 -56 44 -70 47 -3 0 -24 13 -47 28 -24 15 -45 27 -47 27 -2 0 -31
15 -64 34 -33 19 -62 32 -65 30 -2 -3 -10 2 -17 11 -7 8 -19 15 -27 15 -7 0
-30 8 -51 19 -20 10 -80 33 -132 51 -88 29 -102 34 -122 39 -4 1 -22 7 -40 12
-31 10 -42 12 -93 23 -11 2 -42 9 -69 16 -27 6 -51 8 -54 5 -3 -2 -11 0 -18 6
-8 6 -20 9 -28 6 -8 -3 -17 -1 -20 6 -3 9 -5 8 -5 -1 -1 -8 -7 -10 -18 -5 -10
5 -27 8 -38 8 -11 -1 -26 4 -34 9 -12 9 -13 8 -6 -4 7 -13 6 -13 -7 -2 -12 9
-18 10 -23 2 -5 -8 -11 -8 -21 1 -7 6 -21 9 -29 5 -8 -3 -15 -1 -15 4 0 6 -5
10 -11 10 -5 0 -7 -6 -3 -12 5 -9 2 -9 -9 1 -16 13 -22 8 -18 -13 1 -5 -5 -3
-15 5 -17 14 -127 21 -118 8z m-1666 -849 c0 -5 -5 -10 -11 -10 -5 0 -7 5 -4
10 3 6 8 10 11 10 2 0 4 -4 4 -10z m-1722 -245 c-3 -3 -9 2 -12 12 -6 14 -5
15 5 6 7 -7 10 -15 7 -18z m-3285 -40 c-3 -9 -8 -14 -10 -11 -3 3 -2 9 2 15 9
16 15 13 8 -4z m-1533 -4911 c0 -8 -19 -13 -24 -6 -3 5 1 9 9 9 8 0 15 -2 15
-3z m3090 -114 c8 -5 11 -10 5 -10 -5 0 -17 5 -25 10 -8 5 -10 10 -5 10 6 0
17 -5 25 -10z m-80 -6 c0 -8 -19 -13 -24 -6 -3 5 1 9 9 9 8 0 15 -2 15 -3z
m621 -17 c-10 -9 -11 -8 -5 6 3 10 9 15 12 12 3 -3 0 -11 -7 -18z m34 13 c3
-5 1 -10 -4 -10 -6 0 -11 5 -11 10 0 6 2 10 4 10 3 0 8 -4 11 -10z m150 -30
c3 -5 1 -10 -4 -10 -6 0 -11 5 -11 10 0 6 2 10 4 10 3 0 8 -4 11 -10z m-1060
-9 c-9 -8 -36 -10 -30 -2 2 4 11 8 20 8 8 0 13 -3 10 -6z m-175 -39 c0 -5 -7
-9 -15 -9 -8 0 -12 4 -9 9 3 4 9 8 15 8 5 0 9 -4 9 -8z m1450 4 c0 -2 -8 -10
-17 -17 -16 -13 -17 -12 -4 4 13 16 21 21 21 13z m-1576 -32 c3 -8 2 -12 -4
-9 -6 3 -10 10 -10 16 0 14 7 11 14 -7z m7327 -1111 c13 -16 12 -17 -3 -4 -10
7 -18 15 -18 17 0 8 8 3 21 -13z m-3421 -139 c0 -8 -19 -13 -24 -6 -3 5 1 9 9
9 8 0 15 -2 15 -3z m71 -17 c-10 -9 -11 -8 -5 6 3 10 9 15 12 12 3 -3 0 -11
-7 -18z"/>
<path d="M8715 10490 c3 -5 8 -10 11 -10 2 0 4 5 4 10 0 6 -5 10 -11 10 -5 0
-7 -4 -4 -10z"/>
<path d="M880 4020 c0 -5 5 -10 11 -10 5 0 7 5 4 10 -3 6 -8 10 -11 10 -2 0
-4 -4 -4 -10z"/>
</g>
</svg>
